<?xml version="1.0" encoding="iso-8859-1"?>
<!-- Generator: Adobe Illustrator 21.0.0, SVG Export Plug-In . SVG Version: 6.00 Build 0)  -->
<svg version="1.1" id="Layer_1" xmlns="http://www.w3.org/2000/svg" xmlns:xlink="http://www.w3.org/1999/xlink" x="0px" y="0px"
	 viewBox="0 0 24 24" enable-background="new 0 0 24 24" xml:space="preserve">
<g>
	<path fill="#303C42" d="M18,0H6C4.8969727,0,4,0.8969727,4,2v4.5C4,6.7763672,4.2236328,7,4.5,7h15
		C19.7763672,7,20,6.7763672,20,6.5V2C20,0.8969727,19.1030273,0,18,0z M9.5,5h-3
		C6.2978516,5,6.1152344,4.878418,6.0380859,4.6914063C5.9604492,4.5043945,6.003418,4.2895508,6.1464844,4.1464844l0.5-0.5
		c0.1953125-0.1953125,0.5117188-0.1953125,0.7070313,0C7.4511719,3.7441406,7.5,3.8720703,7.5,4h2C9.7763672,4,10,4.2236328,10,4.5
		S9.7763672,5,9.5,5z"/>
	<path fill="#303C42" d="M19.5,8h-15C4.2236328,8,4,8.2236328,4,8.5V21c0,1.1030273,0.8969727,2,2,2v0.5
		C6,23.7763672,6.2236328,24,6.5,24h1C7.7763672,24,8,23.7763672,8,23.5V23h8v0.5c0,0.2763672,0.2236328,0.5,0.5,0.5h1
		c0.2763672,0,0.5-0.2236328,0.5-0.5V23c1.1030273,0,2-0.8969727,2-2V8.5C20,8.2236328,19.7763672,8,19.5,8z M9.5,11h-3
		c-0.2021484,0-0.3847656-0.121582-0.4619141-0.3085938c-0.0776367-0.1870117-0.034668-0.4018555,0.1083984-0.5449219l0.5-0.5
		c0.1953125-0.1953125,0.5117188-0.1953125,0.7070313,0C7.4511719,9.7441406,7.5,9.8720703,7.5,10h2
		c0.2763672,0,0.5,0.2236328,0.5,0.5S9.7763672,11,9.5,11z"/>
</g>
<g>
</g>
<g>
</g>
<g>
</g>
<g>
</g>
<g>
</g>
<g>
</g>
<g>
</g>
<g>
</g>
<g>
</g>
<g>
</g>
<g>
</g>
<g>
</g>
<g>
</g>
<g>
</g>
<g>
</g>
</svg>
