<?xml version="1.0" encoding="utf-8"?>
<!-- Generator: Adobe Illustrator 23.0.1, SVG Export Plug-In . SVG Version: 6.00 Build 0)  -->
<svg version="1.1" id="Layer_1" xmlns="http://www.w3.org/2000/svg" xmlns:xlink="http://www.w3.org/1999/xlink" x="0px" y="0px"
	 viewBox="0 0 64 64" style="enable-background:new 0 0 64 64;" xml:space="preserve">
<style type="text/css">
	.st0{fill:#231F20;}
</style>
<path id="XMLID_2735_" class="st0" d="M64,17L47,0.17L30,17v10.04L17,14.17L0,31h0v15.83l17,17l17-17v-10l13,13l17-17L64,17L64,17z
	 M47,5.83L58.34,17L47,28.17L35.66,17L47,5.83z M17,19.83L28.34,31L17,42.17L5.66,31L17,19.83z M4,34.96l11,10.89v10.32l-11-11
	V34.96z M19,56.17V45.85l11-10.89v10.21L19,56.17z M34,31V20.96l11,10.89v10.32l-11-11V31z M60,31.17l-11,11V31.85l11-10.89V31.17z"
	/>
</svg>
