<?xml version="1.0" encoding="UTF-8" standalone="no"?> <svg xmlns="http://www.w3.org/2000/svg" viewBox="0 0 64 64"><g id="Layer_42" data-name="Layer 42"><path d="M51.76,6a3,3,0,0,0-5.58-1.5l-4.83,8.38a11,11,0,0,0-9.24.24c-9-11-25.55.88-18,13h-.88a1,1,0,0,0-1,1A18.27,18.27,0,0,0,27.8,45.18v8.46A1.76,1.76,0,0,1,26,55.4a6,6,0,0,0-4.84,2.48L20.38,59H18.54a1,1,0,0,0,0,2H42.59a1,1,0,0,0,0-2H40.76L40,57.88A6,6,0,0,0,35.1,55.4a1.77,1.77,0,0,1-1.77-1.76V45.18A18.27,18.27,0,0,0,48.9,27.07a1.06,1.06,0,0,0-1.27-1A11.09,11.09,0,0,0,46,16.71l5.34-9.24A3,3,0,0,0,51.76,6ZM14.24,19.88a9.11,9.11,0,0,1,9.09-9.1c7.81-.14,12.09,9.66,6.66,15.29H16.68A9,9,0,0,1,14.24,19.88Zm18,23.44a1.07,1.07,0,0,0-.9,1v9.32A3.76,3.76,0,0,0,35.1,57.4,4,4,0,0,1,38.29,59H22.84A4,4,0,0,1,26,57.4a3.76,3.76,0,0,0,3.77-3.76V44.32a1,1,0,0,0-.9-1A16.27,16.27,0,0,1,14.27,28.07h32.6A16.28,16.28,0,0,1,32.23,43.32ZM45.54,26.07h-13A11.13,11.13,0,0,0,33.2,14.8C40.33,11.42,48.25,18.66,45.54,26.07Zm4.1-19.58-5,8.61a11.17,11.17,0,0,0-1.56-1.26L47.91,5.5A1,1,0,0,1,49.64,6.49Z"/></g></svg>