<?xml version="1.0" encoding="UTF-8" standalone="no"?> <svg xmlns="http://www.w3.org/2000/svg" viewBox="0 0 64 64"><g id="Layer_3" data-name="Layer 3"><path d="M47,20c.82-9-5.77-17-15-17A15,15,0,0,0,17,18c0,2,0,25.35,0,28a1,1,0,0,0,1,1h9.88V60a1,1,0,0,0,1,1h6.16a1,1,0,0,0,1-1V47H46a1,1,0,0,0,1-1S47,20,47,20ZM32,5A13,13,0,0,1,44.82,16.17,4.51,4.51,0,0,0,38,20V29a2.5,2.5,0,0,1-4.25,1.76A2.47,2.47,0,0,1,33,29V13.3a4.49,4.49,0,1,0-9,0V22a2.49,2.49,0,0,1-5,0V18A13,13,0,0,1,32,5Zm2.08,54H29.92V47h4.16ZM19,45V25.72A4.52,4.52,0,0,0,26,22V13.3a2.49,2.49,0,1,1,5,0V29a4.49,4.49,0,1,0,9,0V20a2.49,2.49,0,0,1,5,0V45Z"/></g></svg>