<svg xmlns="http://www.w3.org/2000/svg" viewBox="0 0 64 64" width="100%" height="100%">
  <g transform="translate(4, 4) scale(0.875)">
    <path d="M24,55H10a1,1,0,0,1-1-1V45a8,8,0,0,1,16,0v9A1,1,0,0,1,24,55ZM11,53H23V45a6,6,0,0,0-12,0Z"/>
    <path d="M30,55H4a1,1,0,0,1-1-1V45A14,14,0,0,1,15.93,31.05,10.41,10.41,0,0,1,17,31,14,14,0,0,1,31,45v9A1,1,0,0,1,30,55ZM5,53H29V45A12,12,0,0,0,17,33a8.51,8.51,0,0,0-.88,0A12,12,0,0,0,5,45Z"/>
    <path d="M38,55H30a1,1,0,0,1-1-1V45A12,12,0,0,0,17,33a1,1,0,0,1,0-2H28A11,11,0,0,1,39,42V54A1,1,0,0,1,38,55Zm-7-2h6V42a9,9,0,0,0-9-9H24.22a14.5,14.5,0,0,1,2.68,2.1A13.94,13.94,0,0,1,31,45Z"/>
    <path d="M60,55H38a1,1,0,0,1-1-1V42a8.82,8.82,0,0,0-.75-3.59A9,9,0,0,0,28,33H17a8.51,8.51,0,0,0-.88,0,1,1,0,0,1-.78-.24,1,1,0,0,1-.34-.75,23,23,0,0,1,.87-6.32,22.67,22.67,0,0,1,2.85-6.28A23,23,0,0,1,38,9a22.83,22.83,0,0,1,13.22,4.18,23.69,23.69,0,0,1,3.05,2.55A23,23,0,0,1,61,32V54A1,1,0,0,1,60,55ZM39,53H59V32a21.19,21.19,0,0,0-.79-5.73,20.4,20.4,0,0,0-2.61-5.72,20.74,20.74,0,0,0-5.53-5.73A21,21,0,0,0,20.4,20.55a20.4,20.4,0,0,0-2.61,5.72A21.63,21.63,0,0,0,17,31H28a11,11,0,0,1,10.08,6.6A10.81,10.81,0,0,1,39,42Z"/>
    <path d="M38,33H16a1,1,0,0,1-1-1,22.87,22.87,0,0,1,.87-6.27,1,1,0,0,1,1-.73H38a1,1,0,0,1,1,1v6A1,1,0,0,1,38,33ZM17,31H37V27H17.6A21.56,21.56,0,0,0,17,31Z"/>
    <path d="M60,39H51a1,1,0,0,1-1-1V32a1,1,0,0,1,1-1h9a1,1,0,0,1,1,1v6A1,1,0,0,1,60,39Zm-8-2h7V33H52Z"/>
    <path d="M60,33H38a1,1,0,0,1-1-1V26a1,1,0,0,1,1-1H59.17a1,1,0,0,1,1,.73A22.71,22.71,0,0,1,61,32,1,1,0,0,1,60,33ZM39,31H59a21.32,21.32,0,0,0-.58-4H39Z"/>
    <path d="M51,55H38a1,1,0,0,1-1-1V46a1,1,0,0,1,1-1H51a1,1,0,0,1,1,1v8A1,1,0,0,1,51,55ZM39,53H50V47H39Z"/>
    <path d="M60,55H51a1,1,0,0,1-1-1V46a1,1,0,0,1,1-1h9a1,1,0,0,1,1,1v8A1,1,0,0,1,60,55Zm-8-2h7V47H52Z"/>
    <path d="M47,47H38a1,1,0,0,1-1-1V42a8.82,8.82,0,0,0-.75-3.59,1,1,0,0,1,.07-1,1,1,0,0,1,.84-.45H47a1,1,0,0,1,1,1v8A1,1,0,0,1,47,47Zm-8-2h7V39H38.58A10.76,10.76,0,0,1,39,42Z"/>
    <path d="M60,47H47a1,1,0,0,1-1-1V38a1,1,0,0,1,1-1H60a1,1,0,0,1,1,1v8A1,1,0,0,1,60,47ZM48,45H59V39H48Z"/>
    <path d="M51,39H37.16a1,1,0,0,1-.92-.6A9,9,0,0,0,28,33a1,1,0,0,1,0-2H51a1,1,0,0,1,1,1v6A1,1,0,0,1,51,39ZM37.79,37H50V33H34.32A10.93,10.93,0,0,1,37.79,37Z"/>
    <path d="M28,27H16.83a1,1,0,0,1-.8-.4,1,1,0,0,1-.16-.87,22.67,22.67,0,0,1,2.85-6.28,1,1,0,0,1,.84-.45H28a1,1,0,0,1,1,1v6A1,1,0,0,1,28,27Zm-9.81-2H27V21H20.11A20.42,20.42,0,0,0,18.19,25Z"/>
    <path d="M59.17,27H46a1,1,0,0,1-1-1V20a1,1,0,0,1,1-1H56.44a1,1,0,0,1,.84.45,22.67,22.67,0,0,1,2.85,6.28,1,1,0,0,1-.16.87A1,1,0,0,1,59.17,27ZM47,25H57.81a20.42,20.42,0,0,0-1.92-4H47Z"/>
    <path d="M46,27H28a1,1,0,0,1-1-1V20a1,1,0,0,1,1-1H46a1,1,0,0,1,1,1v6A1,1,0,0,1,46,27ZM29,25H45V21H29Z"/>
    <path d="M56.44,21H37.75a1,1,0,0,1-1-1V14a1,1,0,0,1,1-1H50.64a1,1,0,0,1,.57.18,23.12,23.12,0,0,1,3.06,2.55,22.67,22.67,0,0,1,3,3.73A1,1,0,0,1,56.44,21ZM38.75,19H54.5a22,22,0,0,0-1.65-1.85A19.17,19.17,0,0,0,50.32,15H38.75Z"/>
    <path d="M37.75,21H19.56a1,1,0,0,1-.88-.52,1,1,0,0,1,0-1,23.14,23.14,0,0,1,6.05-6.27,1,1,0,0,1,.58-.18h12.4a1,1,0,0,1,1,1v6A1,1,0,0,1,37.75,21ZM21.51,19H36.75V15H25.67A20.76,20.76,0,0,0,21.51,19Z"/>
  </g>
</svg>