<svg xmlns="http://www.w3.org/2000/svg" viewBox="0 0 512 512" width="100%" height="100%">
  <title>19 Igloo</title>
  <g data-name="19.Igloo" transform="translate(0, -64) scale(1.25)">
    <path d="M247.322,329.5766v70.2818h68.4053V341.027A98.6044,98.6044,0,0,1,366.61,254.5381h-44.249A75.1236,75.1236,0,0,0,247.322,329.5766Z"/>
    <path d="M414.5165,254.5381a86.583,86.583,0,0,0-86.4849,86.4849v58.8329h50.516V338.3986a34.5959,34.5959,0,0,1,34.5959-34.5958h9.7591a34.5958,34.5958,0,0,1,34.5958,34.5958v61.4573H497.839a3.1667,3.1667,0,0,0,3.1634-3.1625v-55.67A86.5832,86.5832,0,0,0,414.5165,254.5381Z"/>
    <path d="M202.9648,112.14H159.3775c-81.8138,0-148.3751,66.5652-148.3751,148.3851v115.51a23.8509,23.8509,0,0,0,23.8239,23.8239H235.0206V329.5766a87.4389,87.4389,0,0,1,87.34-87.34h27.86C341.1519,168.7625,277.722,112.14,202.9648,112.14ZM142.5725,330.6382a14.0951,14.0951,0,0,1-14.095,14.0951H49.6454A14.0951,14.0951,0,0,1,35.55,330.6382v-26.39a14.095,14.095,0,0,1,14.0951-14.0949h78.8321a14.095,14.095,0,0,1,14.095,14.0949Zm77.1963-91.6257a14.0951,14.0951,0,0,1-14.095,14.095H126.8417a14.0951,14.0951,0,0,1-14.0951-14.095v-26.39a14.095,14.095,0,0,1,14.0951-14.0951h78.8321a14.095,14.095,0,0,1,14.095,14.0951Z"/>
  </g>
</svg>