<svg version="1.1" id="Layer_1" xmlns="http://www.w3.org/2000/svg" xmlns:xlink="http://www.w3.org/1999/xlink" x="0px" y="0px" viewBox="0 0 434.3412 308.9986" enable-background="new 0 0 434.3412 308.9986" xml:space="preserve">
<g>
	<path d="M420.2203,287.576h-40.6082c0.4998-4.0663,0.7585-8.2064,0.7585-12.314c0-37.0096-20.1329-67.9285-46.7263-74.7823
		c-22.4379-64.1789-80.2583-109.9882-147.8821-109.9882c-87.0439,0-157.8594,75.8906-157.8594,169.1724
		c0,9.3148,0.7273,18.7026,2.1544,27.9121h-8.1455v10.4501h398.3085V287.576z M43.1241,252.7254l-2.9834-0.3145
		c-1.1125,10.5435,0.5122,25.267,1.42,32.1353h-5.8922c-1.1724-8.2275-1.7656-16.585-1.7656-24.8823
		c0-7.3521,0.4631-14.5893,1.3442-21.6865h56.1142c-1.2899,6.8757-4.0513,23.9316-4.6763,46.5688H44.5934
		C43.7224,277.9736,42.0364,263.0338,43.1241,252.7254z M61.3722,219.8963c2.8354-17.0851,12.3452-36.7954,13.9763-40.0908h29.2747
		c-1.6419,3.9401-5.2011,13.253-7.9722,25.9399l2.9307,0.6406c3.0208-13.8306,7.0933-23.782,8.3049-26.5806h15.7802
		c-3.9631,7.9658-13.2977,28.7847-15.5853,52.1719H49.12c6.0639-30.0303,15.4181-47.831,17.8865-52.1719h4.999
		c-2.7678,5.7228-10.9227,23.5092-13.5932,39.5996L61.3722,219.8963z M116.5651,123.3362
		c2.597-5.1944,9.7468-11.7833,14.7262-15.9818c6.5485-2.7131,13.3101-4.9613,20.257-6.6866
		c-8.4943,6.4338-18.7903,15.925-23.1383,26.6346H97.0615c7.8856-6.1183,16.3365-11.4429,25.2522-15.8667
		c-3.4705,3.426-6.7537,7.2016-8.4322,10.5586L116.5651,123.3362z M122.026,133.3362c0.0005-0.0004,0.0036-0.0036,0.0039-0.0039
		l-0.0287-0.0298h4.6118c-2.377,3.1453-7.4063,10.5214-9.5024,19.1123l2.9141,0.7109
		c2.5581-10.4814,10.0781-19.4102,10.1538-19.4995l-0.3801-0.3237h36.6951c-2.7191,6.3467-8.9866,22.7853-9.5016,40.5029h-55.9199
		C108.2143,147.0123,121.822,133.5353,122.026,133.3362z M244.6481,173.8055h-75.938c0.6689-4.6202,2.1227-12.961,4.5634-18.8975
		l-2.7744-1.1406c-2.6687,6.4902-4.1732,15.3868-4.8253,20.0381h-2.6774c0.6389-19.9956,9.2975-38.8589,10.0703-40.5029h50.652
		l-0.0287,0.0298C223.8336,133.4716,237.4895,146.9516,244.6481,173.8055z M296.5702,179.8055
		c1.362,2.3875,4.8163,8.8566,8.664,19.2456h-22.1115c-13.6675,0-26.2344,6.2899-36.1448,16.7692
		c-3.7662-16.4326-9.8956-29.9491-12.9134-36.0148H296.5702z M146.8642,237.9774c-0.8192,4.0093-4.15,21.1281-4.7191,37.0049
		l2.998,0.1074c0.5982-16.6907,4.3035-34.8186,4.7846-37.1123h5.2212c-1.2898,6.8757-4.0513,23.9316-4.6758,46.5688H92.688
		c0.6627-23.2971,3.6863-40.8526,4.788-46.5688H146.8642z M135.6428,179.8055c-2.4128,4.8589-9.2774,20.0942-11.9898,41.0459
		l2.9756,0.3848c2.9951-23.1373,11.3972-39.5595,12.3869-41.4307h40.2586v52.1719h-65.1642
		c2.6628-25.6334,14.4075-48.596,16.3073-52.1719H135.6428z M218.8104,179.8055c1.9894,3.4894,9.6114,17.9496,10.9851,36.8188
		l2.9922-0.2178c-1.2855-17.6584-7.6794-31.2872-10.5386-36.6011h5.0649c1.6394,3.0859,10.6096,20.6056,14.7505,41.8277
		c-2.3963,3.1836-4.5756,6.648-6.5192,10.3442H185.274v-52.1719H218.8104z M264.6681,275.262c0,3.0925,0.1469,6.2023,0.431,9.284
		l-33.3729,0.0002c-0.3018-3.0806-0.4546-6.1929-0.4546-9.2842c0-38.7144,23.2603-70.2109,51.8511-70.2109h2.0158
		c-8.8061,5.1824-22.938,18.7081-27.5441,53.0654l2.9736,0.3984c5.9249-44.1938,28.4028-52.4272,31.9867-53.4639h7.4651
		C279.2647,216.6371,264.6681,243.7461,264.6681,275.262z M166.5143,250.0394c-1.3069,7.2933-3.6147,26.7613-4.514,34.5068h-5.5243
		c0.6623-23.2971,3.686-40.8526,4.7876-46.5688h71.4322c-4.7184,11.0309-7.4242,23.746-7.4242,37.2847
		c0,3.0905,0.1469,6.2004,0.4312,9.2842h-60.6816c0.9243-7.9318,3.1899-26.9682,4.4462-33.9775L166.5143,250.0394z
		 M373.9156,284.5462h-8.0776c0.1849-2.1437,0.2881-4.3207,0.2881-6.5307c0-31.3702-19.0532-56.8008-42.5564-56.8008
		c-23.5033,0-42.5564,25.4306-42.5564,56.8008c0,2.21,0.1032,4.387,0.2881,6.5307h-10.1789
		c-0.3018-3.0786-0.4551-6.1904-0.4551-9.2842c0-38.7144,23.2607-70.2109,51.8516-70.2109s51.8516,31.4966,51.8516,70.2109
		C374.3707,278.3538,374.2184,281.4666,373.9156,284.5462z M43.0049,231.9774h-6.9052
		c2.9803-18.6567,8.9183-36.2388,17.2759-52.1719h6.79C56.2394,187.3434,48.3504,204.8235,43.0049,231.9774z M325.5192,199.1532
		v-0.1021h-13.8746c-3.202-8.9776-6.2341-15.4016-8.2365-19.2456h14.5574v-0.3523c3.3551,6.3594,6.3262,12.9813,8.875,19.8328
		C326.3997,199.2429,325.9625,199.1832,325.5192,199.1532z M314.8425,173.8055h-63.9927
		c-5.2516-20.7958-14.1516-34.1708-19.2094-40.5029h37.3917c2.0624,1.4495,16.3323,12.0949,22.1697,32.7637l2.8867-0.8154
		c-4.8007-16.9979-14.8469-27.398-20.1848-31.9482h7.8265C294.7335,144.7255,305.9439,158.4158,314.8425,173.8055z
		 M242.6358,127.3026c-4.3593-10.8703-14.3817-20.3152-22.4661-26.585c19.8698,4.9644,38.2507,14.1376,54.2935,26.585H242.6358z
		 M195.1585,96.813c5.0875,3.2013,18.1857,12.4098,23.7991,25.4612l2.7559-1.1855c-4.6876-10.8986-13.9758-19.0817-20.3907-23.7463
		c1.3878,0.1525,2.769,0.329,4.1456,0.5215l-0.0186,0.0323c0.2433,0.1398,22.6226,13.1586,30.6147,29.4063H135.0014
		c7.3246-14.5367,27.1592-26.9066,31.5396-29.5091c6.2964-0.8583,12.7115-1.3019,19.2214-1.3019
		C188.9185,96.4915,192.0495,96.6081,195.1585,96.813z M89.7944,133.3026h24.2851c-5.0577,6.3321-13.9577,19.7072-19.2094,40.5029
		h-4.6087c0.8414-3.3059,4.6915-17.293,11.7201-26.3882l-2.374-1.834c-8.2623,10.6912-12.1702,27.0764-12.4362,28.2222H56.6821
		C65.5807,158.4158,76.7912,144.7255,89.7944,133.3026z"></path>
	<rect y="304.8186" width="434.3412" height="4.18"></rect>
	<polygon points="317.3751,112.8084 316.9005,114.578 322.877,116.1815 318.5079,118.702 319.424,120.291 323.795,117.7675 
		322.1934,123.7459 323.963,124.2205 326.0386,116.4725 333.924,111.9199 333.924,121.0233 328.252,126.6953 329.549,127.992 
		333.924,123.617 333.924,128.661 335.7579,128.661 335.7579,123.617 340.1329,127.992 341.4297,126.6953 335.7579,121.0233 
		335.7579,111.9199 343.6426,116.4725 345.7188,124.2205 347.4883,123.7459 345.8887,117.7675 350.2579,120.291 351.174,118.702 
		346.8029,116.1795 352.7813,114.578 352.3068,112.8084 344.5587,114.8846 336.674,110.3319 344.5587,105.7791 352.3068,107.8553 
		352.7813,106.0838 346.8029,104.4843 351.174,101.9608 350.2579,100.3729 345.8868,102.8963 347.4883,96.9178 345.7188,96.4432 
		343.6426,104.1913 335.7579,108.744 335.7579,99.6405 341.4297,93.9666 340.1329,92.6718 335.7579,97.0468 335.7579,92.0018 
		333.924,92.0018 333.924,97.0468 329.549,92.6718 328.252,93.9666 333.924,99.6405 333.924,108.744 326.0386,104.1932 
		323.965,96.4453 322.1934,96.9178 323.795,102.8963 319.4258,100.3729 318.5098,101.9608 322.877,104.4843 316.9005,106.0858 
		317.3751,107.8553 325.1231,105.7791 333.0079,110.3319 325.1207,114.8846 	"></polygon>
	<polygon points="372.873,62.2281 372.5618,63.3884 376.4802,64.4396 373.6157,66.0921 374.2162,67.1339 377.082,65.4794 
		376.032,69.399 377.1921,69.7101 378.553,64.6304 383.7227,61.6456 383.7227,67.614 380.0042,71.3326 380.8544,72.1828 
		383.7227,69.3145 383.7227,72.6215 384.9251,72.6215 384.9251,69.3145 387.7935,72.1828 388.6437,71.3326 384.9251,67.614 
		384.9251,61.6456 390.0945,64.6304 391.4557,69.7101 392.6158,69.399 391.5671,65.4794 394.4316,67.1339 395.0322,66.0921 
		392.1664,64.4384 396.086,63.3884 395.7748,62.2281 390.695,63.5894 385.5257,60.6046 390.695,57.6196 395.7748,58.9808 
		396.086,57.8194 392.1664,56.7707 395.0322,55.1163 394.4316,54.0753 391.5658,55.7296 392.6158,51.81 391.4557,51.4988 
		390.0945,56.5787 384.9251,59.5635 384.9251,53.5951 388.6437,49.8752 387.7935,49.0262 384.9251,51.8945 384.9251,48.587 
		383.7227,48.587 383.7227,51.8945 380.8544,49.0262 380.0042,49.8752 383.7227,53.5951 383.7227,59.5635 378.553,56.5799 
		377.1934,51.5002 376.032,51.81 377.082,55.7296 374.2175,54.0753 373.6169,55.1163 376.4802,56.7707 372.5618,57.8207 
		372.873,58.9808 377.9528,57.6196 383.1222,60.6046 377.9512,63.5894 	"></polygon>
	<polygon points="275.9832,67.7446 275.6721,68.9048 279.5904,69.9561 276.726,71.6086 277.3265,72.6503 280.1923,70.9958 
		279.1422,74.9154 280.3024,75.2266 281.6632,70.1469 286.8329,67.162 286.8329,73.1304 283.1144,76.8491 283.9647,77.6992 
		286.8329,74.8309 286.8329,78.1379 288.0353,78.1379 288.0353,74.8309 290.9037,77.6992 291.7539,76.8491 288.0353,73.1304 
		288.0353,67.162 293.2047,70.1469 294.5659,75.2266 295.726,74.9154 294.6773,70.9958 297.5418,72.6503 298.1424,71.6086 
		295.2766,69.9548 299.1962,68.9048 298.8851,67.7446 293.8052,69.1058 288.6359,66.121 293.8052,63.136 298.8851,64.4973 
		299.1962,63.3358 295.2766,62.2871 298.1424,60.6327 297.5418,59.5917 294.676,61.246 295.726,57.3264 294.5659,57.0153 
		293.2047,62.0951 288.0353,65.0799 288.0353,59.1115 291.7539,55.3916 290.9037,54.5426 288.0353,57.4109 288.0353,54.1034 
		286.8329,54.1034 286.8329,57.4109 283.9647,54.5426 283.1144,55.3916 286.8329,59.1115 286.8329,65.0799 281.6632,62.0963 
		280.3036,57.0166 279.1422,57.3264 280.1923,61.246 277.3278,59.5917 276.7272,60.6327 279.5904,62.2871 275.6721,63.3372 
		275.9832,64.4973 281.063,63.136 286.2324,66.121 281.0614,69.1058 	"></polygon>
	<polygon points="328.8491,13.6412 328.5379,14.8013 332.4562,15.8527 329.5918,17.5051 330.1923,18.5468 333.0581,16.8924 
		332.0081,20.812 333.1682,21.1232 334.5291,16.0434 339.6988,13.0586 339.6988,19.027 335.9802,22.7456 336.8305,23.5958 
		339.6988,20.7275 339.6988,24.0344 340.9012,24.0344 340.9012,20.7275 343.7695,23.5958 344.6198,22.7456 340.9012,19.027 
		340.9012,13.0586 346.0706,16.0434 347.4318,21.1232 348.5919,20.812 347.5432,16.8924 350.4077,18.5468 351.0082,17.5051 
		348.1425,15.8513 352.0621,14.8013 351.7509,13.6412 346.6711,15.0024 341.5018,12.0175 346.6711,9.0327 351.7509,10.3938 
		352.0621,9.2324 348.1425,8.1837 351.0082,6.5293 350.4077,5.4882 347.5419,7.1426 348.5919,3.223 347.4318,2.9119 
		346.0706,7.9916 340.9012,10.9765 340.9012,5.0081 344.6198,1.2881 343.7695,0.4392 340.9012,3.3075 340.9012,0 339.6988,0 
		339.6988,3.3075 336.8305,0.4392 335.9802,1.2881 339.6988,5.0081 339.6988,10.9765 334.5291,7.9929 333.1695,2.9131 
		332.0081,3.223 333.0581,7.1426 330.1936,5.4882 329.593,6.5293 332.4562,8.1837 328.5379,9.2337 328.8491,10.3938 
		333.9288,9.0327 339.0983,12.0175 333.9272,15.0024 	"></polygon>
	<polygon points="204.408,42.4749 204.0968,43.635 208.0152,44.6863 205.1507,46.3388 205.7513,47.3805 208.6171,45.7261 
		207.567,49.6456 208.7271,49.9568 210.088,44.8771 215.2578,41.8923 215.2578,47.8607 211.5391,51.5793 212.3894,52.4295 
		215.2578,49.5612 215.2578,52.8681 216.4601,52.8681 216.4601,49.5612 219.3284,52.4295 220.1786,51.5793 216.4601,47.8607 
		216.4601,41.8923 221.6295,44.8771 222.9907,49.9568 224.1508,49.6456 223.1021,45.7261 225.9666,47.3805 226.5671,46.3388 
		223.7014,44.685 227.621,43.635 227.3098,42.4749 222.23,43.8361 217.0607,40.8512 222.23,37.8663 227.3098,39.2275 
		227.621,38.066 223.7014,37.0173 226.5671,35.363 225.9666,34.3219 223.1008,35.9763 224.1508,32.0567 222.9907,31.7455 
		221.6295,36.8253 216.4601,39.8101 216.4601,33.8417 220.1786,30.1218 219.3284,29.2728 216.4601,32.1412 216.4601,28.8337 
		215.2578,28.8337 215.2578,32.1412 212.3894,29.2728 211.5391,30.1218 215.2578,33.8417 215.2578,39.8101 210.088,36.8265 
		208.7285,31.7468 207.567,32.0567 208.6171,35.9763 205.7525,34.3219 205.152,35.363 208.0152,37.0173 204.0968,38.0674 
		204.408,39.2275 209.4877,37.8663 214.6572,40.8512 209.4862,43.8361 	"></polygon>
</g>
</svg>