<?xml version="1.0" encoding="UTF-8" standalone="no"?> <svg width="64" height="64" viewBox="0 0 64 64" fill="none" xmlns="http://www.w3.org/2000/svg">
<path d="M33 39C34.265 39.1348 35.4898 39.523 36.6014 40.1415C37.713 40.76 38.6886 41.5962 39.47 42.6H45.61V37.26H33V39Z" fill="black"/>
<path d="M17.1699 42.57H24.5299C25.3132 41.5708 26.2899 40.7398 27.4015 40.1264C28.5131 39.513 29.737 39.1299 30.9999 39V37.26H17.1699V42.57Z" fill="black"/>
<path d="M38.31 29.96H24.48V35.26H38.31V29.96Z" fill="black"/>
<path d="M45.61 22.6501H33V27.9501H45.61V22.6501Z" fill="black"/>
<path d="M60 57.1701H57.35V41.1701C57.3502 34.6171 54.8158 28.3179 50.2772 23.5911C45.7386 18.8642 39.5476 16.076 33 15.8101V11.6001C34.3608 11.3648 35.5951 10.6573 36.4858 9.60198C37.3765 8.54665 37.8667 7.21106 37.87 5.83008C37.87 5.56486 37.7646 5.31051 37.5771 5.12297C37.3896 4.93544 37.1352 4.83008 36.87 4.83008C36.6048 4.83008 36.3504 4.93544 36.1629 5.12297C35.9754 5.31051 35.87 5.56486 35.87 5.83008C35.87 6.33829 35.7699 6.84153 35.5754 7.31106C35.3809 7.78059 35.0959 8.20722 34.7365 8.56658C34.3771 8.92594 33.9505 9.21101 33.481 9.40549C33.0115 9.59998 32.5082 9.70008 32 9.70008C31.4918 9.70008 30.9885 9.59998 30.519 9.40549C30.0495 9.21101 29.6229 8.92594 29.2635 8.56658C28.9041 8.20722 28.6191 7.78059 28.4246 7.31106C28.2301 6.84153 28.13 6.33829 28.13 5.83008C28.13 5.56486 28.0246 5.31051 27.8371 5.12297C27.6496 4.93544 27.3952 4.83008 27.13 4.83008C26.8648 4.83008 26.6104 4.93544 26.4229 5.12297C26.2354 5.31051 26.13 5.56486 26.13 5.83008C26.1333 7.21106 26.6235 8.54665 27.5142 9.60198C28.4049 10.6573 29.6392 11.3648 31 11.6001V15.8101C24.4593 16.0757 18.2742 18.8583 13.7366 23.5766C9.19908 28.2949 6.66008 34.584 6.65 41.1301V57.1301H4C3.73478 57.1301 3.48043 57.2354 3.29289 57.423C3.10536 57.6105 3 57.8649 3 58.1301C3 58.3953 3.10536 58.6497 3.29289 58.8372C3.48043 59.0247 3.73478 59.1301 4 59.1301H60C60.2652 59.1301 60.5196 59.0247 60.7071 58.8372C60.8946 58.6497 61 58.3953 61 58.1301C61 57.8649 60.8946 57.6105 60.7071 57.423C60.5196 57.2354 60.2652 57.1301 60 57.1301V57.1701ZM55.25 39.0901C55.25 38.5401 55.13 37.9901 55.05 37.4501C55.13 38.0001 55.21 38.5401 55.25 39.0901ZM22 20.0001L20.84 20.5901L22 20.0001ZM15.17 25.0001C14.77 25.4201 14.38 25.8601 14.01 26.3101C14.38 25.8301 14.77 25.3901 15.17 25.0001ZM13.66 26.7601C13.4 27.0801 13.16 27.4101 12.92 27.7601C13.16 27.3801 13.4 27.0501 13.66 26.7301V26.7601ZM9 37.4501C8.92 37.9901 8.85 38.5401 8.8 39.0901C8.79 38.5401 8.87 38.0001 9 37.4501ZM55.4 44.5701H40.68C41.2303 45.7827 41.5166 47.0984 41.52 48.4301V49.8701H55.35V51.8701H47.61V57.1701H45.61V51.8701H41.52V57.1701H22.52V51.8701H17.17V57.1701H15.17V51.8701H8.65V49.8701H22.48V48.4301C22.4834 47.0984 22.7697 45.7827 23.32 44.5701H8.65V42.5701H15.17V37.2601H9C9.11 36.5801 9.25 35.9201 9.42 35.2601H22.48V30.0001H11.48C11.8565 29.3113 12.2705 28.6436 12.72 28.0001H15.14V25.0001C15.7723 24.3441 16.4399 23.7232 17.14 23.1401V28.0001H31V22.6501H17.75C18.7177 21.9066 19.7406 21.238 20.81 20.6501H43.18C44.7728 21.5185 46.2594 22.5689 47.61 23.7801V28.0001H51.24C51.6985 28.6397 52.116 29.3077 52.49 30.0001H40.3V35.3001H54.59C54.76 35.9601 54.9 36.6201 55.01 37.3001H47.61V42.6101H55.35L55.4 44.5701Z" fill="black"/>
</svg>
