<svg viewBox="0 0 1363 1052.92" xmlns="http://www.w3.org/2000/svg">
  <g transform="scale(-1, 1) translate(-1363, 0)">
    <path d="M200.89 530.37c110.893.135 200.753 89.995 200.888 200.876v314.087H0V731.26c.135-110.895 89.995-200.755 200.876-200.89h.013zm82.37 396.444V731.258c0-45.492-36.88-82.37-82.37-82.37s-82.37 36.878-82.37 82.37v195.556zm344.296 118.52h-455.11v-118.52h336.592V731.258c-.067-45.465-36.906-82.303-82.364-82.37H200.89v-118.52h225.778c110.894.136 200.754 89.996 200.89 200.877v.013zm735.407 0H285.63v-118.52h958.815V589.63c0-248.406-201.372-449.78-449.778-449.78S344.89 341.224 344.89 589.63H226.37c0-313.862 254.435-568.297 568.296-568.297s568.296 254.435 568.296 568.296zm-115.556-682.075H398.814V244.74h848.593zm56.297 226.37H625.186V471.11h678.518zM1190.518 816H568.296V697.48h622.222zM967.11 983.11H848.593V756.74h118.52zm169.483-226.37h-118.52V530.37h118.52zM967.11 530.37H848.593V304h118.52zM797.038 304h-118.52V77.63h118.52zm0 452.74h-118.52V530.37h118.52z"/>
  </g>
</svg>
